<?xml version="1.0" encoding="utf-8"?>
<!-- Generator: Adobe Illustrator 19.0.0, SVG Export Plug-In . SVG Version: 6.00 Build 0)  -->
<svg version="1.1" id="Layer_1" xmlns="http://www.w3.org/2000/svg" xmlns:xlink="http://www.w3.org/1999/xlink" x="0px" y="0px"
	 viewBox="479.9 435.1 1076.6 568" style="enable-background:new 479.9 435.1 1076.6 568;" xml:space="preserve">
<style type="text/css">
	.st0{display:none;}
	.st1{display:inline;}
	.st2{fill:#247CB2;}
	.st3{fill:#FFFFFF;}
	.st4{display:inline;fill:#247CB2;}
</style>
<g id="Layer_2_1_" class="st0">
	<g class="st1">
		<g id="XMLID_151_">
			<path id="XMLID_165_" class="st2" d="M1247.8,572.1c0.7,1.6,1.5,3.4,1.9,5.1c0.3,0.4,0.6,0.9,0.9,1.3
				C1249.9,576.5,1249,574.2,1247.8,572.1z"/>
			<path id="XMLID_164_" class="st2" d="M1249.8,577.2c-9.7-15.4-22.6-28.9-38.6-40.2c-15-10.6-30.5-18.3-46.8-22.6
				c-6.7-1.8-13.5-3.1-20.5-3.9c-0.3-0.1-0.4-0.3-0.7-0.4c-0.4,0.1-0.9,0.1-1.3,0.3c-9-0.9-18-0.7-27.4,0.1c-0.1,0-0.3,0-0.4,0h-0.1
				c-0.1,0-0.1,0.1-0.3,0.1c-3.3,0.3-6.6,0.7-10,1.3c-4.9,0.7-9.1,2.1-12.9,3.7c-11.1,0.6-22.3-1.6-33.5-6.7
				c-18.9-8.4-32-22.1-39.3-41.3c-1.3-3.6-3-6.7-4.6-9.6c-8.8-13.9-22.4-17.5-40.7-10.8c-21.8,8.7-28.6,23.8-20.2,45.5
				c12.9,33.2,34.4,58,64.8,74.7c-19,23.9-29.2,51.5-30.2,82.6c-0.3,2.1-0.4,4.3-0.4,6.7c-0.4,20.8-8.4,38.5-23.5,53
				s-32.9,21.5-53.7,21.2c-20.8-0.4-38.5-8.4-53-23.5s-21.5-32.9-21.2-53.7c0.4-21.2,8.2-38.9,23-53.3
				c14.8-14.5,32.9-21.5,53.9-21.1c23.5,0.7,35.5-10.8,35.9-34.6c0.1-23-11.4-35-34.6-35.9c-40.4-0.7-75.3,12.9-104.3,40.8
				c-28.9,27.8-43.7,61.9-44.4,102.3c-0.7,40.2,12.9,75,40.8,104c28.1,29.2,62.2,44.1,102.3,44.7c40.2,0.9,74.8-12.7,103.8-40.7
				c3.4-3.3,6.7-6.7,9.7-10.3c2.8,3.3,6,6.6,9.1,9.7c10.2,9.9,20.9,17.8,32.5,24.1c13.8,7.8,28.7,13.3,45,16.3
				c22.9,3.9,36.7-5.5,41.1-28.3c3.9-23.2-5.5-36.8-28.3-40.7c-6.6-1.3-13-3.6-19.2-6.6l0.1-0.3c-3.3-1.3-6.4-3.1-9.6-5.1
				c-2.2-1.5-4.3-3-6.6-4.8c-1.9-1.8-3.7-3.6-5.5-5.4l-0.4,0.3c-0.1-0.1-0.3-0.3-0.3-0.3c-14.7-14.2-22.1-31.6-22.4-52.1
				c-0.4-20.2,6.4-37.9,20.9-52.7c14.5-15,31.9-22.4,52.2-22.6c9.7-0.1,18.7,1.3,27.1,4.6c1.6,0.6,3.3,1.3,4.9,2.1
				c10.3,4.9,19,11.5,26,19.7c4.6,6,10.3,9.7,17.2,11.5c1.9,0.6,4,0.9,6.3,1c0.4,0,0.7,0,1.2,0c7.6,0,15.7-3.4,23.9-10.3
				C1248.7,600,1253.1,588.9,1249.8,577.2z M1047.1,580.1c-1.3-0.4-2.5-0.7-3.9-1.2C1044.5,579.2,1045.9,579.6,1047.1,580.1z
				 M1042.6,578.6c-1.5-0.4-2.8-1-4.3-1.5C1039.7,577.7,1041.2,578.1,1042.6,578.6z M1037.3,576.8c-1.2-0.4-2.2-0.9-3.4-1.3
				C1035.1,575.9,1036.3,576.3,1037.3,576.8z M1028.5,573c1.3,0.6,2.8,1.2,4.2,1.8C1031.3,574.4,1029.8,573.8,1028.5,573
				c-2.2-1-4.3-1.9-6.4-3C1024.2,571.1,1026.3,572.1,1028.5,573z M1144.9,511.3c0.7,0.4,1.3,0.9,1.9,1.5
				C1146.2,512.2,1145.6,511.6,1144.9,511.3z M1147.3,512.8c0.6,0.4,1.2,1,1.8,1.5C1148.3,513.8,1147.9,513.3,1147.3,512.8z
				 M1149.4,514.7c0.4,0.4,1,1,1.5,1.6C1150.4,515.7,1150,515.3,1149.4,514.7z M1151.5,516.9c0.4,0.4,0.9,1,1.3,1.6
				C1152.4,518,1151.9,517.5,1151.5,516.9z M1153.4,519.5c0.3,0.6,0.7,1,1,1.6C1154.2,520.7,1153.9,520.1,1153.4,519.5z
				 M1155.4,522.5c0.3,0.4,0.6,1,0.9,1.5C1156,523.5,1155.7,522.9,1155.4,522.5z M1157.2,525.9c0.1,0.4,0.4,0.9,0.6,1.3
				C1157.6,526.7,1157.3,526.4,1157.2,525.9z"/>
			<path id="XMLID_163_" class="st2" d="M1038.2,577.1c1.5,0.6,2.8,1,4.3,1.5"/>
			<path id="XMLID_162_" class="st2" d="M1028.5,573c1.3,0.6,2.8,1.2,4.2,1.8"/>
			<path id="XMLID_161_" class="st2" d="M1022.1,570.1c2.1,1,4.2,2.1,6.4,3"/>
			<path id="XMLID_160_" class="st2" d="M1033.9,575.4c1.2,0.4,2.2,0.9,3.4,1.3"/>
			<path id="XMLID_159_" class="st2" d="M1043.2,578.9c1.3,0.4,2.5,0.9,3.9,1.2"/>
			<path id="XMLID_158_" class="st2" d="M1144.9,511.3c0.7,0.4,1.3,0.9,1.9,1.5"/>
			<path id="XMLID_157_" class="st2" d="M1151.5,516.9c0.4,0.4,0.9,1,1.3,1.6"/>
			<path id="XMLID_156_" class="st2" d="M1155.4,522.5c0.3,0.4,0.6,1,0.9,1.5"/>
			<path id="XMLID_155_" class="st2" d="M1147.3,512.8c0.6,0.4,1.2,1,1.8,1.5"/>
			<path id="XMLID_154_" class="st2" d="M1153.4,519.5c0.3,0.6,0.7,1,1,1.6"/>
			<path id="XMLID_153_" class="st2" d="M1149.4,514.7c0.4,0.4,1,1,1.5,1.6"/>
			<path id="XMLID_152_" class="st2" d="M1157.2,525.9c0.1,0.4,0.4,0.9,0.6,1.3"/>
		</g>
	</g>
</g>
<g id="Layer_2">
	<g>
		<g id="XMLID_136_">
			<path id="XMLID_150_" class="st3" d="M1269.4,563.1c0.7,1.6,1.5,3.4,1.9,5.1c0.3,0.4,0.6,0.9,0.9,1.3
				C1271.5,567.5,1270.6,565.2,1269.4,563.1z"/>
			<path id="XMLID_149_" class="st3" d="M1271.4,568.2c-9.7-15.4-22.6-28.9-38.6-40.2c-15-10.6-30.5-18.3-46.8-22.6
				c-6.7-1.8-13.5-3.1-20.5-3.9c-0.3-0.1-0.4-0.3-0.7-0.4c-0.4,0.1-0.9,0.1-1.3,0.3c-9-0.9-18-0.7-27.4,0.1c-0.1,0-0.3,0-0.4,0h-0.1
				c-0.1,0-0.1,0.1-0.3,0.1c-3.3,0.3-6.6,0.7-10,1.3c-4.9,0.7-9.1,2.1-12.9,3.7c-11.1,0.6-22.3-1.6-33.5-6.7
				c-18.9-8.4-32-22.1-39.3-41.3c-1.3-3.6-3-6.7-4.6-9.6c-8.8-13.9-22.4-17.5-40.7-10.8c-21.8,8.7-28.6,23.8-20.2,45.5
				c12.9,33.2,34.4,58,64.8,74.7c-19,23.9-29.2,51.5-30.2,82.6c-0.3,2.1-0.4,4.3-0.4,6.7c-0.4,20.8-8.4,38.5-23.5,53
				s-32.9,21.5-53.7,21.2c-20.8-0.4-38.5-8.4-53-23.5s-21.5-32.9-21.2-53.7c0.4-21.2,8.2-38.9,23-53.3
				c14.8-14.5,32.9-21.5,53.9-21.1c23.5,0.7,35.5-10.8,35.9-34.6c0.1-23-11.4-35-34.6-35.9c-40.4-0.7-75.3,12.9-104.3,40.8
				c-28.9,27.8-43.7,61.9-44.4,102.3c-0.7,40.2,12.9,75,40.8,104c28.1,29.2,62.2,44.1,102.3,44.7c40.2,0.9,74.8-12.7,103.8-40.7
				c3.4-3.3,6.7-6.7,9.7-10.3c2.8,3.3,6,6.6,9.1,9.7c10.2,9.9,20.9,17.8,32.5,24.1c13.8,7.8,28.7,13.3,45,16.3
				c22.9,3.9,36.7-5.5,41.1-28.3c3.9-23.2-5.5-36.8-28.3-40.7c-6.6-1.3-13-3.6-19.2-6.6l0.1-0.3c-3.3-1.3-6.4-3.1-9.6-5.1
				c-2.2-1.5-4.3-3-6.6-4.8c-1.9-1.8-3.7-3.6-5.5-5.4l-0.4,0.3c-0.1-0.1-0.3-0.3-0.3-0.3c-14.7-14.2-22.1-31.6-22.4-52.1
				c-0.4-20.2,6.4-37.9,20.9-52.7c14.5-15,31.9-22.4,52.2-22.6c9.7-0.1,18.7,1.3,27.1,4.6c1.6,0.6,3.3,1.3,4.9,2.1
				c10.3,4.9,19,11.5,26,19.7c4.6,6,10.3,9.7,17.2,11.5c1.9,0.6,4,0.9,6.3,1c0.4,0,0.7,0,1.2,0c7.6,0,15.7-3.4,23.9-10.3
				C1270.3,591,1274.6,579.9,1271.4,568.2z M1068.6,571.1c-1.3-0.4-2.5-0.7-3.9-1.2C1066.1,570.2,1067.4,570.6,1068.6,571.1z
				 M1064.1,569.6c-1.5-0.4-2.8-1-4.3-1.5C1061.3,568.7,1062.8,569.1,1064.1,569.6z M1058.9,567.8c-1.2-0.4-2.2-0.9-3.4-1.3
				C1056.7,566.9,1057.9,567.3,1058.9,567.8z M1050.1,564c1.3,0.6,2.8,1.2,4.2,1.8C1052.9,565.4,1051.4,564.8,1050.1,564
				c-2.2-1-4.3-1.9-6.4-3C1045.7,562.1,1047.8,563.1,1050.1,564z M1166.5,502.3c0.7,0.4,1.3,0.9,1.9,1.5
				C1167.8,503.2,1167.2,502.6,1166.5,502.3z M1168.9,503.8c0.6,0.4,1.2,1,1.8,1.5C1169.9,504.8,1169.5,504.3,1168.9,503.8z
				 M1171,505.7c0.4,0.4,1,1,1.5,1.6C1172,506.7,1171.6,506.3,1171,505.7z M1173.1,507.9c0.4,0.4,0.9,1,1.3,1.6
				C1174,509,1173.5,508.5,1173.1,507.9z M1175,510.5c0.3,0.6,0.7,1,1,1.6C1175.8,511.7,1175.5,511.1,1175,510.5z M1176.9,513.5
				c0.3,0.4,0.6,1,0.9,1.5C1177.5,514.5,1177.2,513.9,1176.9,513.5z M1178.7,516.9c0.1,0.4,0.4,0.9,0.6,1.3
				C1179.2,517.7,1178.9,517.4,1178.7,516.9z"/>
			<path id="XMLID_148_" class="st3" d="M1059.8,568.1c1.5,0.6,2.8,1,4.3,1.5"/>
			<path id="XMLID_147_" class="st3" d="M1050.1,564c1.3,0.6,2.8,1.2,4.2,1.8"/>
			<path id="XMLID_146_" class="st3" d="M1043.6,561.1c2.1,1,4.2,2.1,6.4,3"/>
			<path id="XMLID_145_" class="st3" d="M1055.5,566.4c1.2,0.4,2.2,0.9,3.4,1.3"/>
			<path id="XMLID_144_" class="st3" d="M1064.7,569.9c1.3,0.4,2.5,0.9,3.9,1.2"/>
			<path id="XMLID_143_" class="st3" d="M1166.5,502.3c0.7,0.4,1.3,0.9,1.9,1.5"/>
			<path id="XMLID_142_" class="st3" d="M1173.1,507.9c0.4,0.4,0.9,1,1.3,1.6"/>
			<path id="XMLID_141_" class="st3" d="M1176.9,513.5c0.3,0.4,0.6,1,0.9,1.5"/>
			<path id="XMLID_140_" class="st3" d="M1168.9,503.8c0.6,0.4,1.2,1,1.8,1.5"/>
			<path id="XMLID_139_" class="st3" d="M1175,510.5c0.3,0.6,0.7,1,1,1.6"/>
			<path id="XMLID_138_" class="st3" d="M1171,505.7c0.4,0.4,1,1,1.5,1.6"/>
			<path id="XMLID_137_" class="st3" d="M1178.7,516.9c0.1,0.4,0.4,0.9,0.6,1.3"/>
		</g>
	</g>
</g>
<g class="st0">
	<path class="st4" d="M606.4,908.5c-5.7,0-10.7,2-14.8,6c-4.2,4-6.2,8.9-6.2,14.8c0,8.7-3.1,16.1-9.3,22.4
		c-6.2,6.3-13.6,9.4-22.3,9.4c-8.8,0-16.3-3.1-22.5-9.4c-6.2-6.3-9.3-13.8-9.3-22.4c0-8.7,3.1-16.1,9.3-22.4
		c6.2-6.3,13.7-9.4,22.5-9.4c5.6,0,10.4-2,14.6-6c4.2-4,6.2-8.9,6.2-14.8c0-5.7-2-10.6-6.1-14.7c-4.1-4.1-9-6.2-14.7-6.4
		c-20.7,0.3-38.1,7.5-51.9,21.6c-13.9,14.1-21.2,30.9-21.8,50.5c0.7,21.9,7.9,39.8,21.7,53.8c13.8,14,31.1,21.2,51.8,21.7
		c20.9-0.5,38.3-7.8,52.3-21.9c14-14.1,21.1-31.4,21.4-51.8c0-5.9-2-10.8-6-14.8C617.2,910.5,612.2,908.5,606.4,908.5z"/>
	<path class="st4" d="M715.5,855.5c-20.9,0.5-38.3,7.7-52.1,21.7c-13.8,14-21,31.3-21.7,52.1c0.7,20.7,7.9,38.1,21.7,52.1
		c13.8,14,31.2,21.2,52.1,21.7c20.7-0.5,38-7.7,51.8-21.7c13.8-14,21-31.3,21.7-52.1c-0.7-20.7-7.9-38.1-21.7-52.1
		C753.5,863.2,736.3,856,715.5,855.5z M737.8,951.7c-6.2,6.3-13.6,9.4-22.3,9.4c-8.8,0-16.3-3.1-22.5-9.4
		c-6.2-6.3-9.3-13.8-9.3-22.4c0-8.7,3.1-16.1,9.3-22.4c6.2-6.3,13.7-9.4,22.5-9.4c8.7,0,16.1,3.1,22.3,9.4
		c6.2,6.3,9.3,13.8,9.3,22.4C747.1,937.9,744,945.4,737.8,951.7z"/>
	<path class="st4" d="M824.7,842.3c-5.9,0-10.8,2-14.8,6c-4,4-6,8.9-6,14.8c0,5.7,2,10.7,6,14.8c4,4.2,8.9,6.2,14.8,6.2
		c5.7,0,10.7-2.1,14.8-6.2c4.2-4.2,6.2-9.1,6.2-14.8c0-5.9-2.1-10.8-6.2-14.8C835.4,844.3,830.4,842.3,824.7,842.3z"/>
	<path class="st4" d="M824.7,895.2c-5.9,0-10.8,2-14.8,6c-4,4-6,8.9-6,14.8V982c0,5.7,2,10.7,6,14.8c4,4.2,8.9,6.2,14.8,6.2
		c5.7,0,10.7-2.1,14.8-6.2c4.2-4.2,6.2-9.1,6.2-14.8v-65.9c0-5.9-2.1-10.8-6.2-14.8C835.4,897.2,830.4,895.2,824.7,895.2z"/>
	<path class="st4" d="M933.4,855.5c-20.4,0.5-37.6,7.8-51.6,21.9c-14,14.1-21.1,31.4-21.4,51.8l0.2,52.7c0,5.9,2,10.8,6,14.8
		c4,4,8.9,6,14.8,6c5.7,0,10.7-2,14.8-6c4.2-4,6.2-8.9,6.2-14.8v-52.7c0.3-9.3,3.5-16.9,9.4-22.9c6-6,13.4-8.9,22.2-8.9
		c8.7,0,16.1,3.1,22.3,9.4c6.2,6.3,9.3,13.8,9.3,22.4v52.9c0,5.9,2.1,10.8,6.2,14.8c4.2,4,9.1,6,14.8,6c5.9,0,10.8-2,14.8-6
		c4-4,6-8.9,6-14.8v-54.4c-0.7-19.8-7.9-36.6-21.7-50.6C972.1,863.2,954.6,856,933.4,855.5z"/>
	<path class="st4" d="M1095.7,897.4c5.7,0,10.7-2.1,14.8-6.2c4.2-4.2,6.2-9.1,6.2-14.8c0-5.9-2.1-10.8-6.2-14.8c-4.2-4-9.1-6-14.8-6
		h-31.6v-5.4c0-5.9-2.1-10.8-6.2-14.8c-4.2-4-9.1-6-14.8-6c-5.9,0-10.8,2-14.8,6c-4,4-6,8.9-6,14.8v80.6
		c0.7,19.8,7.9,36.7,21.8,50.7c13.9,14.1,31.2,21.2,51.9,21.6c5.7-0.2,10.6-2.3,14.7-6.4c4.1-4.1,6.1-9,6.1-14.7
		c0-5.9-2.1-10.8-6.2-14.8c-4.2-4-9-6-14.6-6c-8.8,0-16.3-3.1-22.5-9.4c-6.2-6.3-9.3-13.8-9.3-22.4v-31.9H1095.7z"/>
	<path class="st4" d="M1257.8,855.5c-5.7,0-10.7,2-14.8,6c-4.2,4-6.2,8.9-6.2,14.8v52.9c0,8.7-3.1,16.1-9.3,22.4
		c-6.2,6.3-13.6,9.4-22.3,9.4c-8.8,0-16.2-2.9-22.2-8.8c-6-5.9-9.1-13.6-9.4-23v-52.7c0-5.9-2.1-10.8-6.2-14.8c-4.2-4-9.1-6-14.8-6
		c-5.9,0-10.8,2-14.8,6c-4,4-6,8.9-6,14.8l-0.2,52.7c0.3,20.4,7.5,37.7,21.4,51.8c14,14.1,31.3,21.4,52.1,21.9
		c20.9-0.5,38.3-7.7,52.1-21.7c13.8-14,21-30.8,21.7-50.6v-54.4c0-5.9-2-10.8-6-14.8C1268.6,857.5,1263.7,855.5,1257.8,855.5z"/>
	<path class="st4" d="M1532.6,899.9c-3.9-8.8-9.2-16.5-16-23c-6.8-6.6-14.6-11.8-23.6-15.7c-9-3.9-18.7-5.9-29.1-5.9
		c-8.8,0-17.3,1.8-25.4,5.3c-8.1,3.5-15.2,8.2-21.3,14.1c-6.9-5.9-14.5-10.6-22.9-14.1c-8.4-3.5-17-5.3-25.8-5.3
		c-5.9,0-11.4,0.8-16.4,2.3c-5.1,1.6-10.1,3.3-15,5.3c-2-2-4.4-3.7-7.2-5.3c-2.8-1.6-6.2-2.3-10.1-2.3c-6.9,0-12.5,2.5-16.9,7.6
		c-4.4,5.1-6.6,11.2-6.6,18.2v48.7v46.7c0,6.9,2.2,12.8,6.6,17.8c4.4,5,10,7.5,16.9,7.5c3.3,0,6.5-0.7,9.5-2.1
		c3-1.4,5.7-3.2,7.9-5.4c2.2-2.2,4.1-4.9,5.4-7.9c1.4-3,2.1-6.3,2.1-9.8v-46.7c0-7,2.2-13.1,6.6-18.1c4.4-5,10.1-7.5,17.2-7.5
		c6.8,0,12.5,2.5,16.9,7.5c4.4,5,6.6,11,6.6,18.1v46.7c0,3.5,0.7,6.8,2.1,9.8c1.4,3,3.2,5.7,5.4,7.9c2.2,2.3,4.9,4.1,7.9,5.4
		c3,1.4,6.3,2.1,9.8,2.1c6.8,0,12.5-2.5,16.9-7.5c4.4-5,6.6-10.9,6.6-17.8v-46.7c0-3.5,0.7-6.8,2.1-10c1.4-3.1,3.1-5.8,5.3-8.1
		c2.2-2.2,4.6-4.1,7.3-5.4c2.7-1.4,5.6-2.1,8.5-2.1c7,0,13.1,2.5,18.1,7.5c5,5,7.5,11,7.5,18.1v46.7c0,6.9,2.2,12.8,6.6,17.8
		c4.4,5,10,7.5,16.9,7.5c3.5,0,6.8-0.7,9.8-2.1c3-1.4,5.7-3.2,8.1-5.4c2.3-2.2,4.2-4.9,5.6-7.9c1.4-3,2.1-6.3,2.1-9.8v-46.7v-2.3
		C1538.5,917.9,1536.5,908.7,1532.6,899.9z"/>
</g>
<g>
	<path class="st3" d="M624.4,899.1c-5.7,0-10.7,2-14.8,6c-4.2,4-6.2,8.9-6.2,14.8c0,8.7-3.1,16.1-9.3,22.4
		c-6.2,6.3-13.6,9.4-22.3,9.4c-8.8,0-16.3-3.1-22.5-9.4c-6.2-6.3-9.3-13.8-9.3-22.4c0-8.7,3.1-16.1,9.3-22.4
		c6.2-6.3,13.7-9.4,22.5-9.4c5.6,0,10.4-2,14.6-6c4.2-4,6.2-8.9,6.2-14.8c0-5.7-2-10.6-6.1-14.7c-4.1-4.1-9-6.2-14.7-6.4
		c-20.7,0.3-38.1,7.5-51.9,21.6c-13.9,14.1-21.2,30.9-21.8,50.5c0.7,21.9,7.9,39.8,21.7,53.8c13.8,14,31.1,21.2,51.8,21.7
		c20.9-0.5,38.3-7.8,52.3-21.9c14-14.1,21.1-31.4,21.4-51.8c0-5.9-2-10.8-6-14.8C635.2,901.1,630.2,899.1,624.4,899.1z"/>
	<path class="st3" d="M733.5,846.2c-20.9,0.5-38.3,7.7-52.1,21.7c-13.8,14-21,31.3-21.7,52.1c0.7,20.7,7.9,38.1,21.7,52.1
		c13.8,14,31.2,21.2,52.1,21.7c20.7-0.5,38-7.7,51.8-21.7c13.8-14,21-31.3,21.7-52.1c-0.7-20.7-7.9-38.1-21.7-52.1
		C771.5,853.9,754.3,846.6,733.5,846.2z M755.8,942.3c-6.2,6.3-13.6,9.4-22.3,9.4c-8.8,0-16.3-3.1-22.5-9.4
		c-6.2-6.3-9.3-13.8-9.3-22.4c0-8.7,3.1-16.1,9.3-22.4c6.2-6.3,13.7-9.4,22.5-9.4c8.7,0,16.1,3.1,22.3,9.4
		c6.2,6.3,9.3,13.8,9.3,22.4C765.1,928.6,762,936,755.8,942.3z"/>
	<path class="st3" d="M842.7,832.9c-5.9,0-10.8,2-14.8,6c-4,4-6,8.9-6,14.8c0,5.7,2,10.7,6,14.8c4,4.2,8.9,6.2,14.8,6.2
		c5.7,0,10.7-2.1,14.8-6.2c4.2-4.2,6.2-9.1,6.2-14.8c0-5.9-2.1-10.8-6.2-14.8C853.4,834.9,848.4,832.9,842.7,832.9z"/>
	<path class="st3" d="M842.7,885.9c-5.9,0-10.8,2-14.8,6c-4,4-6,8.9-6,14.8v65.9c0,5.7,2,10.7,6,14.8c4,4.2,8.9,6.2,14.8,6.2
		c5.7,0,10.7-2.1,14.8-6.2c4.2-4.2,6.2-9.1,6.2-14.8v-65.9c0-5.9-2.1-10.8-6.2-14.8C853.4,887.9,848.4,885.9,842.7,885.9z"/>
	<path class="st3" d="M951.4,846.2c-20.4,0.5-37.6,7.8-51.6,21.9c-14,14.1-21.1,31.4-21.4,51.8l0.2,52.7c0,5.9,2,10.8,6,14.8
		c4,4,8.9,6,14.8,6c5.7,0,10.7-2,14.8-6c4.2-4,6.2-8.9,6.2-14.8v-52.7c0.3-9.3,3.5-16.9,9.4-22.9c6-6,13.4-8.9,22.2-8.9
		c8.7,0,16.1,3.1,22.3,9.4c6.2,6.3,9.3,13.8,9.3,22.4v52.9c0,5.9,2.1,10.8,6.2,14.8c4.2,4,9.1,6,14.8,6c5.9,0,10.8-2,14.8-6
		c4-4,6-8.9,6-14.8v-54.4c-0.7-19.8-7.9-36.6-21.7-50.6C990.1,853.9,972.6,846.6,951.4,846.2z"/>
	<path class="st3" d="M1113.7,888.1c5.7,0,10.7-2.1,14.8-6.2c4.2-4.2,6.2-9.1,6.2-14.8c0-5.9-2.1-10.8-6.2-14.8c-4.2-4-9.1-6-14.8-6
		h-31.6v-5.4c0-5.9-2.1-10.8-6.2-14.8c-4.2-4-9.1-6-14.8-6c-5.9,0-10.8,2-14.8,6c-4,4-6,8.9-6,14.8v80.6
		c0.7,19.8,7.9,36.7,21.8,50.7c13.9,14.1,31.2,21.2,51.9,21.6c5.7-0.2,10.6-2.3,14.7-6.4c4.1-4.1,6.1-9,6.1-14.7
		c0-5.9-2.1-10.8-6.2-14.8c-4.2-4-9-6-14.6-6c-8.8,0-16.3-3.1-22.5-9.4c-6.2-6.3-9.3-13.8-9.3-22.4v-31.9H1113.7z"/>
	<path class="st3" d="M1275.8,846.2c-5.7,0-10.7,2-14.8,6c-4.2,4-6.2,8.9-6.2,14.8v52.9c0,8.7-3.1,16.1-9.3,22.4
		c-6.2,6.3-13.6,9.4-22.3,9.4c-8.8,0-16.2-2.9-22.2-8.8c-6-5.9-9.1-13.6-9.4-23v-52.7c0-5.9-2.1-10.8-6.2-14.8c-4.2-4-9.1-6-14.8-6
		c-5.9,0-10.8,2-14.8,6c-4,4-6,8.9-6,14.8l-0.2,52.7c0.3,20.4,7.5,37.7,21.4,51.8c14,14.1,31.3,21.4,52.1,21.9
		c20.9-0.5,38.3-7.7,52.1-21.7c13.8-14,21-30.8,21.7-50.6V867c0-5.9-2-10.8-6-14.8C1286.6,848.2,1281.7,846.2,1275.8,846.2z"/>
	<path class="st3" d="M1550.6,890.6c-3.9-8.8-9.2-16.5-16-23c-6.8-6.6-14.6-11.8-23.6-15.7c-9-3.9-18.7-5.9-29.1-5.9
		c-8.8,0-17.3,1.8-25.4,5.3c-8.1,3.5-15.2,8.2-21.3,14.1c-6.9-5.9-14.5-10.6-22.9-14.1c-8.4-3.5-17-5.3-25.8-5.3
		c-5.9,0-11.4,0.8-16.4,2.3c-5.1,1.6-10.1,3.3-15,5.3c-2-2-4.4-3.7-7.2-5.3c-2.8-1.6-6.2-2.3-10.1-2.3c-6.9,0-12.5,2.5-16.9,7.6
		c-4.4,5.1-6.6,11.2-6.6,18.2v48.7v46.7c0,6.9,2.2,12.8,6.6,17.8c4.4,5,10,7.5,16.9,7.5c3.3,0,6.5-0.7,9.5-2.1
		c3-1.4,5.7-3.2,7.9-5.4c2.2-2.2,4.1-4.9,5.4-7.9c1.4-3,2.1-6.3,2.1-9.8v-46.7c0-7,2.2-13.1,6.6-18.1c4.4-5,10.1-7.5,17.2-7.5
		c6.8,0,12.5,2.5,16.9,7.5c4.4,5,6.6,11,6.6,18.1v46.7c0,3.5,0.7,6.8,2.1,9.8c1.4,3,3.2,5.7,5.4,7.9c2.2,2.3,4.9,4.1,7.9,5.4
		c3,1.4,6.3,2.1,9.8,2.1c6.8,0,12.5-2.5,16.9-7.5c4.4-5,6.6-10.9,6.6-17.8v-46.7c0-3.5,0.7-6.8,2.1-10c1.4-3.1,3.1-5.8,5.3-8.1
		c2.2-2.2,4.6-4.1,7.3-5.4c2.7-1.4,5.6-2.1,8.5-2.1c7,0,13.1,2.5,18.1,7.5c5,5,7.5,11,7.5,18.1v46.7c0,6.9,2.2,12.8,6.6,17.8
		c4.4,5,10,7.5,16.9,7.5c3.5,0,6.8-0.7,9.8-2.1c3-1.4,5.7-3.2,8.1-5.4c2.3-2.2,4.2-4.9,5.6-7.9c1.4-3,2.1-6.3,2.1-9.8v-46.7v-2.3
		C1556.5,908.6,1554.5,899.4,1550.6,890.6z"/>
</g>
</svg>
