<?xml version="1.0" encoding="utf-8"?>
<!-- Generator: Adobe Illustrator 19.0.0, SVG Export Plug-In . SVG Version: 6.00 Build 0)  -->
<svg version="1.1" id="Layer_1" xmlns="http://www.w3.org/2000/svg" xmlns:xlink="http://www.w3.org/1999/xlink" x="0px" y="0px"
	 viewBox="944.1 660.6 1076.5 568.3" style="enable-background:new 944.1 660.6 1076.5 568.3;" xml:space="preserve">
<style type="text/css">
	.st0{fill:#914C00;}
	.st1{fill:#F7941E;}
</style>
<g id="Layer_2_1_">
	<g>
		<g id="XMLID_151_">
			<path id="XMLID_165_" class="st0" d="M1711.8,797.8c0.7,1.6,1.5,3.4,1.9,5.1c0.3,0.4,0.6,0.9,0.9,1.3
				C1713.9,802.2,1713,799.9,1711.8,797.8z"/>
			<path id="XMLID_164_" class="st0" d="M1713.8,802.9c-9.7-15.4-22.6-28.9-38.6-40.2c-15-10.6-30.5-18.3-46.8-22.6
				c-6.7-1.8-13.5-3.1-20.5-3.9c-0.3-0.1-0.4-0.3-0.7-0.4c-0.4,0.1-0.9,0.1-1.3,0.3c-9-0.9-18-0.7-27.4,0.1c-0.1,0-0.3,0-0.4,0h-0.1
				c-0.1,0-0.1,0.1-0.3,0.1c-3.3,0.3-6.6,0.7-10,1.3c-4.9,0.7-9.1,2.1-12.9,3.7c-11.1,0.6-22.3-1.6-33.5-6.7
				c-18.9-8.4-32-22.1-39.3-41.3c-1.3-3.6-3-6.7-4.6-9.6c-8.8-13.9-22.4-17.5-40.7-10.8c-21.8,8.7-28.6,23.8-20.2,45.5
				c12.9,33.2,34.4,58,64.8,74.7c-19,23.9-29.2,51.5-30.2,82.6c-0.3,2.1-0.4,4.3-0.4,6.7c-0.4,20.8-8.4,38.5-23.5,53
				s-32.9,21.5-53.7,21.2c-20.8-0.4-38.5-8.4-53-23.5s-21.5-32.9-21.2-53.7c0.4-21.2,8.2-38.9,23-53.3
				c14.8-14.5,32.9-21.5,53.9-21.1c23.5,0.7,35.5-10.8,35.9-34.6c0.1-23-11.4-35-34.6-35.9c-40.4-0.7-75.3,12.9-104.3,40.8
				c-28.9,27.8-43.7,61.9-44.4,102.3c-0.7,40.2,12.9,75,40.8,104c28.1,29.2,62.2,44.1,102.3,44.7c40.2,0.9,74.8-12.7,103.8-40.7
				c3.4-3.3,6.7-6.7,9.7-10.3c2.8,3.3,6,6.6,9.1,9.7c10.2,9.9,20.9,17.8,32.5,24.1c13.8,7.8,28.7,13.3,45,16.3
				c22.9,3.9,36.7-5.5,41.1-28.3c3.9-23.2-5.5-36.8-28.3-40.7c-6.6-1.3-13-3.6-19.2-6.6l0.1-0.3c-3.3-1.3-6.4-3.1-9.6-5.1
				c-2.2-1.5-4.3-3-6.6-4.8c-1.9-1.8-3.7-3.6-5.5-5.4l-0.4,0.3c-0.1-0.1-0.3-0.3-0.3-0.3c-14.7-14.2-22.1-31.6-22.4-52.1
				c-0.4-20.2,6.4-37.9,20.9-52.7c14.5-15,31.9-22.4,52.2-22.6c9.7-0.1,18.7,1.3,27.1,4.6c1.6,0.6,3.3,1.3,4.9,2.1
				c10.3,4.9,19,11.5,26,19.7c4.6,6,10.3,9.7,17.2,11.5c1.9,0.6,4,0.9,6.3,1c0.4,0,0.7,0,1.2,0c7.6,0,15.7-3.4,23.9-10.3
				C1712.7,825.7,1717.1,814.6,1713.8,802.9z M1511.1,805.8c-1.3-0.4-2.5-0.7-3.9-1.2C1508.5,804.9,1509.9,805.3,1511.1,805.8z
				 M1506.6,804.3c-1.5-0.4-2.8-1-4.3-1.5C1503.7,803.4,1505.2,803.8,1506.6,804.3z M1501.3,802.5c-1.2-0.4-2.2-0.9-3.4-1.3
				C1499.1,801.6,1500.3,802,1501.3,802.5z M1492.5,798.7c1.3,0.6,2.8,1.2,4.2,1.8C1495.3,800.1,1493.8,799.5,1492.5,798.7
				c-2.2-1-4.3-1.9-6.4-3C1488.2,796.8,1490.3,797.8,1492.5,798.7z M1608.9,737c0.7,0.4,1.3,0.9,1.9,1.5
				C1610.2,737.9,1609.6,737.3,1608.9,737z M1611.3,738.5c0.6,0.4,1.2,1,1.8,1.5C1612.3,739.5,1611.9,739,1611.3,738.5z
				 M1613.4,740.4c0.4,0.4,1,1,1.5,1.6C1614.4,741.4,1614,741,1613.4,740.4z M1615.5,742.6c0.4,0.4,0.9,1,1.3,1.6
				C1616.4,743.7,1615.9,743.2,1615.5,742.6z M1617.4,745.2c0.3,0.6,0.7,1,1,1.6C1618.2,746.4,1617.9,745.8,1617.4,745.2z
				 M1619.4,748.2c0.3,0.4,0.6,1,0.9,1.5C1620,749.2,1619.7,748.6,1619.4,748.2z M1621.2,751.6c0.1,0.4,0.4,0.9,0.6,1.3
				C1621.6,752.4,1621.3,752.1,1621.2,751.6z"/>
			<path id="XMLID_163_" class="st0" d="M1502.2,802.8c1.5,0.6,2.8,1,4.3,1.5"/>
			<path id="XMLID_162_" class="st0" d="M1492.5,798.7c1.3,0.6,2.8,1.2,4.2,1.8"/>
			<path id="XMLID_161_" class="st0" d="M1486.1,795.8c2.1,1,4.2,2.1,6.4,3"/>
			<path id="XMLID_160_" class="st0" d="M1497.9,801.1c1.2,0.4,2.2,0.9,3.4,1.3"/>
			<path id="XMLID_159_" class="st0" d="M1507.2,804.6c1.3,0.4,2.5,0.9,3.9,1.2"/>
			<path id="XMLID_158_" class="st0" d="M1608.9,737c0.7,0.4,1.3,0.9,1.9,1.5"/>
			<path id="XMLID_157_" class="st0" d="M1615.5,742.6c0.4,0.4,0.9,1,1.3,1.6"/>
			<path id="XMLID_156_" class="st0" d="M1619.4,748.2c0.3,0.4,0.6,1,0.9,1.5"/>
			<path id="XMLID_155_" class="st0" d="M1611.3,738.5c0.6,0.4,1.2,1,1.8,1.5"/>
			<path id="XMLID_154_" class="st0" d="M1617.4,745.2c0.3,0.6,0.7,1,1,1.6"/>
			<path id="XMLID_153_" class="st0" d="M1613.4,740.4c0.4,0.4,1,1,1.5,1.6"/>
			<path id="XMLID_152_" class="st0" d="M1621.2,751.6c0.1,0.4,0.4,0.9,0.6,1.3"/>
		</g>
	</g>
</g>
<g id="Layer_2">
	<g>
		<g id="XMLID_136_">
			<path id="XMLID_150_" class="st1" d="M1733.4,788.8c0.7,1.6,1.5,3.4,1.9,5.1c0.3,0.4,0.6,0.9,0.9,1.3
				C1735.5,793.2,1734.6,790.9,1733.4,788.8z"/>
			<path id="XMLID_149_" class="st1" d="M1735.4,793.9c-9.7-15.4-22.6-28.9-38.6-40.2c-15-10.6-30.5-18.3-46.8-22.6
				c-6.7-1.8-13.5-3.1-20.5-3.9c-0.3-0.1-0.4-0.3-0.7-0.4c-0.4,0.1-0.9,0.1-1.3,0.3c-9-0.9-18-0.7-27.4,0.1c-0.1,0-0.3,0-0.4,0h-0.1
				c-0.1,0-0.1,0.1-0.3,0.1c-3.3,0.3-6.6,0.7-10,1.3c-4.9,0.7-9.1,2.1-12.9,3.7c-11.1,0.6-22.3-1.6-33.5-6.7
				c-18.9-8.4-32-22.1-39.3-41.3c-1.3-3.6-3-6.7-4.6-9.6c-8.8-13.9-22.4-17.5-40.7-10.8c-21.8,8.7-28.6,23.8-20.2,45.5
				c12.9,33.2,34.4,58,64.8,74.7c-19,23.9-29.2,51.5-30.2,82.6c-0.3,2.1-0.4,4.3-0.4,6.7c-0.4,20.8-8.4,38.5-23.5,53
				s-32.9,21.5-53.7,21.2c-20.8-0.4-38.5-8.4-53-23.5s-21.5-32.9-21.2-53.7c0.4-21.2,8.2-38.9,23-53.3
				c14.8-14.5,32.9-21.5,53.9-21.1c23.5,0.7,35.5-10.8,35.9-34.6c0.1-23-11.4-35-34.6-35.9c-40.4-0.7-75.3,12.9-104.3,40.8
				c-28.9,27.8-43.7,61.9-44.4,102.3c-0.7,40.2,12.9,75,40.8,104c28.1,29.2,62.2,44.1,102.3,44.7c40.2,0.9,74.8-12.7,103.8-40.7
				c3.4-3.3,6.7-6.7,9.7-10.3c2.8,3.3,6,6.6,9.1,9.7c10.2,9.9,20.9,17.8,32.5,24.1c13.8,7.8,28.7,13.3,45,16.3
				c22.9,3.9,36.7-5.5,41.1-28.3c3.9-23.2-5.5-36.8-28.3-40.7c-6.6-1.3-13-3.6-19.2-6.6l0.1-0.3c-3.3-1.3-6.4-3.1-9.6-5.1
				c-2.2-1.5-4.3-3-6.6-4.8c-1.9-1.8-3.7-3.6-5.5-5.4l-0.4,0.3c-0.1-0.1-0.3-0.3-0.3-0.3c-14.7-14.2-22.1-31.6-22.4-52.1
				c-0.4-20.2,6.4-37.9,20.9-52.7c14.5-15,31.9-22.4,52.2-22.6c9.7-0.1,18.7,1.3,27.1,4.6c1.6,0.6,3.3,1.3,4.9,2.1
				c10.3,4.9,19,11.5,26,19.7c4.6,6,10.3,9.7,17.2,11.5c1.9,0.6,4,0.9,6.3,1c0.4,0,0.7,0,1.2,0c7.6,0,15.7-3.4,23.9-10.3
				C1734.3,816.7,1738.6,805.6,1735.4,793.9z M1532.6,796.8c-1.3-0.4-2.5-0.7-3.9-1.2C1530.1,795.9,1531.4,796.3,1532.6,796.8z
				 M1528.1,795.3c-1.5-0.4-2.8-1-4.3-1.5C1525.3,794.4,1526.8,794.8,1528.1,795.3z M1522.9,793.5c-1.2-0.4-2.2-0.9-3.4-1.3
				C1520.7,792.6,1521.9,793,1522.9,793.5z M1514.1,789.7c1.3,0.6,2.8,1.2,4.2,1.8C1516.9,791.1,1515.4,790.5,1514.1,789.7
				c-2.2-1-4.3-1.9-6.4-3C1509.7,787.8,1511.8,788.8,1514.1,789.7z M1630.5,728c0.7,0.4,1.3,0.9,1.9,1.5
				C1631.8,728.9,1631.2,728.3,1630.5,728z M1632.9,729.5c0.6,0.4,1.2,1,1.8,1.5C1633.9,730.5,1633.5,730,1632.9,729.5z M1635,731.4
				c0.4,0.4,1,1,1.5,1.6C1636,732.4,1635.6,732,1635,731.4z M1637.1,733.6c0.4,0.4,0.9,1,1.3,1.6
				C1638,734.7,1637.5,734.2,1637.1,733.6z M1639,736.2c0.3,0.6,0.7,1,1,1.6C1639.8,737.4,1639.5,736.8,1639,736.2z M1640.9,739.2
				c0.3,0.4,0.6,1,0.9,1.5C1641.5,740.2,1641.2,739.6,1640.9,739.2z M1642.7,742.6c0.1,0.4,0.4,0.9,0.6,1.3
				C1643.2,743.4,1642.9,743.1,1642.7,742.6z"/>
			<path id="XMLID_148_" class="st1" d="M1523.8,793.8c1.5,0.6,2.8,1,4.3,1.5"/>
			<path id="XMLID_147_" class="st1" d="M1514.1,789.7c1.3,0.6,2.8,1.2,4.2,1.8"/>
			<path id="XMLID_146_" class="st1" d="M1507.6,786.8c2.1,1,4.2,2.1,6.4,3"/>
			<path id="XMLID_145_" class="st1" d="M1519.5,792.1c1.2,0.4,2.2,0.9,3.4,1.3"/>
			<path id="XMLID_144_" class="st1" d="M1528.7,795.6c1.3,0.4,2.5,0.9,3.9,1.2"/>
			<path id="XMLID_143_" class="st1" d="M1630.5,728c0.7,0.4,1.3,0.9,1.9,1.5"/>
			<path id="XMLID_142_" class="st1" d="M1637.1,733.6c0.4,0.4,0.9,1,1.3,1.6"/>
			<path id="XMLID_141_" class="st1" d="M1640.9,739.2c0.3,0.4,0.6,1,0.9,1.5"/>
			<path id="XMLID_140_" class="st1" d="M1632.9,729.5c0.6,0.4,1.2,1,1.8,1.5"/>
			<path id="XMLID_139_" class="st1" d="M1639,736.2c0.3,0.6,0.7,1,1,1.6"/>
			<path id="XMLID_138_" class="st1" d="M1635,731.4c0.4,0.4,1,1,1.5,1.6"/>
			<path id="XMLID_137_" class="st1" d="M1642.7,742.6c0.1,0.4,0.4,0.9,0.6,1.3"/>
		</g>
	</g>
</g>
<g>
	<path class="st0" d="M1070.4,1134.2c-5.7,0-10.7,2-14.8,6c-4.2,4-6.2,8.9-6.2,14.8c0,8.7-3.1,16.1-9.3,22.4
		c-6.2,6.3-13.6,9.4-22.3,9.4c-8.8,0-16.3-3.1-22.5-9.4s-9.3-13.8-9.3-22.4c0-8.7,3.1-16.1,9.3-22.4s13.7-9.4,22.5-9.4
		c5.6,0,10.4-2,14.6-6c4.2-4,6.2-8.9,6.2-14.8c0-5.7-2-10.6-6.1-14.7c-4.1-4.1-9-6.2-14.7-6.4c-20.7,0.3-38.1,7.5-51.9,21.6
		c-13.9,14.1-21.2,30.9-21.8,50.5c0.7,21.9,7.9,39.8,21.7,53.8s31.1,21.2,51.8,21.7c20.9-0.5,38.3-7.8,52.3-21.9
		s21.1-31.4,21.4-51.8c0-5.9-2-10.8-6-14.8C1081.2,1136.2,1076.2,1134.2,1070.4,1134.2z"/>
	<path class="st0" d="M1179.5,1081.2c-20.9,0.5-38.3,7.7-52.1,21.7s-21,31.3-21.7,52.1c0.7,20.7,7.9,38.1,21.7,52.1
		s31.2,21.2,52.1,21.7c20.7-0.5,38-7.7,51.8-21.7c13.8-14,21-31.3,21.7-52.1c-0.7-20.7-7.9-38.1-21.7-52.1
		C1217.5,1088.9,1200.3,1081.7,1179.5,1081.2z M1201.8,1177.4c-6.2,6.3-13.6,9.4-22.3,9.4c-8.8,0-16.3-3.1-22.5-9.4
		s-9.3-13.8-9.3-22.4c0-8.7,3.1-16.1,9.3-22.4s13.7-9.4,22.5-9.4c8.7,0,16.1,3.1,22.3,9.4c6.2,6.3,9.3,13.8,9.3,22.4
		C1211.1,1163.6,1208,1171.1,1201.8,1177.4z"/>
	<path class="st0" d="M1288.7,1068c-5.9,0-10.8,2-14.8,6s-6,8.9-6,14.8c0,5.7,2,10.7,6,14.8c4,4.2,8.9,6.2,14.8,6.2
		c5.7,0,10.7-2.1,14.8-6.2c4.2-4.2,6.2-9.1,6.2-14.8c0-5.9-2.1-10.8-6.2-14.8S1294.4,1068,1288.7,1068z"/>
	<path class="st0" d="M1288.7,1120.9c-5.9,0-10.8,2-14.8,6s-6,8.9-6,14.8v66c0,5.7,2,10.7,6,14.8c4,4.2,8.9,6.2,14.8,6.2
		c5.7,0,10.7-2.1,14.8-6.2c4.2-4.2,6.2-9.1,6.2-14.8v-65.9c0-5.9-2.1-10.8-6.2-14.8C1299.4,1122.9,1294.4,1120.9,1288.7,1120.9z"/>
	<path class="st0" d="M1397.4,1081.2c-20.4,0.5-37.6,7.8-51.6,21.9c-14,14.1-21.1,31.4-21.4,51.8l0.2,52.7c0,5.9,2,10.8,6,14.8
		s8.9,6,14.8,6c5.7,0,10.7-2,14.8-6c4.2-4,6.2-8.9,6.2-14.8v-52.7c0.3-9.3,3.5-16.9,9.4-22.9c6-6,13.4-8.9,22.2-8.9
		c8.7,0,16.1,3.1,22.3,9.4c6.2,6.3,9.3,13.8,9.3,22.4v52.9c0,5.9,2.1,10.8,6.2,14.8c4.2,4,9.1,6,14.8,6c5.9,0,10.8-2,14.8-6
		s6-8.9,6-14.8v-54.4c-0.7-19.8-7.9-36.6-21.7-50.6C1436.1,1088.9,1418.6,1081.7,1397.4,1081.2z"/>
	<path class="st0" d="M1559.7,1123.1c5.7,0,10.7-2.1,14.8-6.2c4.2-4.2,6.2-9.1,6.2-14.8c0-5.9-2.1-10.8-6.2-14.8
		c-4.2-4-9.1-6-14.8-6h-31.6v-5.4c0-5.9-2.1-10.8-6.2-14.8c-4.2-4-9.1-6-14.8-6c-5.9,0-10.8,2-14.8,6s-6,8.9-6,14.8v80.6
		c0.7,19.8,7.9,36.7,21.8,50.7c13.9,14.1,31.2,21.2,51.9,21.6c5.7-0.2,10.6-2.3,14.7-6.4s6.1-9,6.1-14.7c0-5.9-2.1-10.8-6.2-14.8
		c-4.2-4-9-6-14.6-6c-8.8,0-16.3-3.1-22.5-9.4s-9.3-13.8-9.3-22.4v-31.9L1559.7,1123.1L1559.7,1123.1z"/>
	<path class="st0" d="M1721.8,1081.2c-5.7,0-10.7,2-14.8,6c-4.2,4-6.2,8.9-6.2,14.8v52.9c0,8.7-3.1,16.1-9.3,22.4
		c-6.2,6.3-13.6,9.4-22.3,9.4c-8.8,0-16.2-2.9-22.2-8.8s-9.1-13.6-9.4-23v-52.7c0-5.9-2.1-10.8-6.2-14.8c-4.2-4-9.1-6-14.8-6
		c-5.9,0-10.8,2-14.8,6s-6,8.9-6,14.8l-0.2,52.7c0.3,20.4,7.5,37.7,21.4,51.8c14,14.1,31.3,21.4,52.1,21.9
		c20.9-0.5,38.3-7.7,52.1-21.7c13.8-14,21-30.8,21.7-50.6v-54.4c0-5.9-2-10.8-6-14.8C1732.6,1083.2,1727.7,1081.2,1721.8,1081.2z"/>
	<path class="st0" d="M1996.6,1125.6c-3.9-8.8-9.2-16.5-16-23c-6.8-6.6-14.6-11.8-23.6-15.7s-18.7-5.9-29.1-5.9
		c-8.8,0-17.3,1.8-25.4,5.3s-15.2,8.2-21.3,14.1c-6.9-5.9-14.5-10.6-22.9-14.1s-17-5.3-25.8-5.3c-5.9,0-11.4,0.8-16.4,2.3
		c-5.1,1.6-10.1,3.3-15,5.3c-2-2-4.4-3.7-7.2-5.3c-2.8-1.6-6.2-2.3-10.1-2.3c-6.9,0-12.5,2.5-16.9,7.6s-6.6,11.2-6.6,18.2v48.7v46.7
		c0,6.9,2.2,12.8,6.6,17.8s10,7.5,16.9,7.5c3.3,0,6.5-0.7,9.5-2.1s5.7-3.2,7.9-5.4c2.2-2.2,4.1-4.9,5.4-7.9c1.4-3,2.1-6.3,2.1-9.8
		v-46.7c0-7,2.2-13.1,6.6-18.1s10.1-7.5,17.2-7.5c6.8,0,12.5,2.5,16.9,7.5s6.6,11,6.6,18.1v46.7c0,3.5,0.7,6.8,2.1,9.8
		s3.2,5.7,5.4,7.9c2.2,2.3,4.9,4.1,7.9,5.4c3,1.4,6.3,2.1,9.8,2.1c6.8,0,12.5-2.5,16.9-7.5s6.6-10.9,6.6-17.8v-46.7
		c0-3.5,0.7-6.8,2.1-10c1.4-3.1,3.1-5.8,5.3-8.1c2.2-2.2,4.6-4.1,7.3-5.4c2.7-1.4,5.6-2.1,8.5-2.1c7,0,13.1,2.5,18.1,7.5
		s7.5,11,7.5,18.1v46.7c0,6.9,2.2,12.8,6.6,17.8s10,7.5,16.9,7.5c3.5,0,6.8-0.7,9.8-2.1s5.7-3.2,8.1-5.4c2.3-2.2,4.2-4.9,5.6-7.9
		s2.1-6.3,2.1-9.8v-46.7v-2.3C2002.5,1143.6,2000.5,1134.4,1996.6,1125.6z"/>
</g>
<g>
	<path class="st1" d="M1088.4,1124.8c-5.7,0-10.7,2-14.8,6c-4.2,4-6.2,8.9-6.2,14.8c0,8.7-3.1,16.1-9.3,22.4
		c-6.2,6.3-13.6,9.4-22.3,9.4c-8.8,0-16.3-3.1-22.5-9.4s-9.3-13.8-9.3-22.4c0-8.7,3.1-16.1,9.3-22.4s13.7-9.4,22.5-9.4
		c5.6,0,10.4-2,14.6-6c4.2-4,6.2-8.9,6.2-14.8c0-5.7-2-10.6-6.1-14.7c-4.1-4.1-9-6.2-14.7-6.4c-20.7,0.3-38.1,7.5-51.9,21.6
		c-13.9,14.1-21.2,30.9-21.8,50.5c0.7,21.9,7.9,39.8,21.7,53.8s31.1,21.2,51.8,21.7c20.9-0.5,38.3-7.8,52.3-21.9
		s21.1-31.4,21.4-51.8c0-5.9-2-10.8-6-14.8C1099.2,1126.8,1094.2,1124.8,1088.4,1124.8z"/>
	<path class="st1" d="M1197.5,1071.9c-20.9,0.5-38.3,7.7-52.1,21.7s-21,31.3-21.7,52.1c0.7,20.7,7.9,38.1,21.7,52.1
		s31.2,21.2,52.1,21.7c20.7-0.5,38-7.7,51.8-21.7c13.8-14,21-31.3,21.7-52.1c-0.7-20.7-7.9-38.1-21.7-52.1
		C1235.5,1079.6,1218.3,1072.3,1197.5,1071.9z M1219.8,1168c-6.2,6.3-13.6,9.4-22.3,9.4c-8.8,0-16.3-3.1-22.5-9.4
		s-9.3-13.8-9.3-22.4c0-8.7,3.1-16.1,9.3-22.4s13.7-9.4,22.5-9.4c8.7,0,16.1,3.1,22.3,9.4c6.2,6.3,9.3,13.8,9.3,22.4
		C1229.1,1154.3,1226,1161.7,1219.8,1168z"/>
	<path class="st1" d="M1306.7,1058.6c-5.9,0-10.8,2-14.8,6s-6,8.9-6,14.8c0,5.7,2,10.7,6,14.8c4,4.2,8.9,6.2,14.8,6.2
		c5.7,0,10.7-2.1,14.8-6.2c4.2-4.2,6.2-9.1,6.2-14.8c0-5.9-2.1-10.8-6.2-14.8S1312.4,1058.6,1306.7,1058.6z"/>
	<path class="st1" d="M1306.7,1111.6c-5.9,0-10.8,2-14.8,6s-6,8.9-6,14.8v65.9c0,5.7,2,10.7,6,14.8c4,4.2,8.9,6.2,14.8,6.2
		c5.7,0,10.7-2.1,14.8-6.2c4.2-4.2,6.2-9.1,6.2-14.8v-65.9c0-5.9-2.1-10.8-6.2-14.8C1317.4,1113.6,1312.4,1111.6,1306.7,1111.6z"/>
	<path class="st1" d="M1415.4,1071.9c-20.4,0.5-37.6,7.8-51.6,21.9s-21.1,31.4-21.4,51.8l0.2,52.7c0,5.9,2,10.8,6,14.8s8.9,6,14.8,6
		c5.7,0,10.7-2,14.8-6c4.2-4,6.2-8.9,6.2-14.8v-52.7c0.3-9.3,3.5-16.9,9.4-22.9c6-6,13.4-8.9,22.2-8.9c8.7,0,16.1,3.1,22.3,9.4
		c6.2,6.3,9.3,13.8,9.3,22.4v52.9c0,5.9,2.1,10.8,6.2,14.8c4.2,4,9.1,6,14.8,6c5.9,0,10.8-2,14.8-6s6-8.9,6-14.8v-54.4
		c-0.7-19.8-7.9-36.6-21.7-50.6C1454.1,1079.6,1436.6,1072.3,1415.4,1071.9z"/>
	<path class="st1" d="M1577.7,1113.8c5.7,0,10.7-2.1,14.8-6.2c4.2-4.2,6.2-9.1,6.2-14.8c0-5.9-2.1-10.8-6.2-14.8
		c-4.2-4-9.1-6-14.8-6h-31.6v-5.4c0-5.9-2.1-10.8-6.2-14.8c-4.2-4-9.1-6-14.8-6c-5.9,0-10.8,2-14.8,6s-6,8.9-6,14.8v80.6
		c0.7,19.8,7.9,36.7,21.8,50.7c13.9,14.1,31.2,21.2,51.9,21.6c5.7-0.2,10.6-2.3,14.7-6.4s6.1-9,6.1-14.7c0-5.9-2.1-10.8-6.2-14.8
		c-4.2-4-9-6-14.6-6c-8.8,0-16.3-3.1-22.5-9.4s-9.3-13.8-9.3-22.4v-31.9L1577.7,1113.8L1577.7,1113.8z"/>
	<path class="st1" d="M1739.8,1071.9c-5.7,0-10.7,2-14.8,6c-4.2,4-6.2,8.9-6.2,14.8v52.9c0,8.7-3.1,16.1-9.3,22.4
		c-6.2,6.3-13.6,9.4-22.3,9.4c-8.8,0-16.2-2.9-22.2-8.8s-9.1-13.6-9.4-23v-52.7c0-5.9-2.1-10.8-6.2-14.8c-4.2-4-9.1-6-14.8-6
		c-5.9,0-10.8,2-14.8,6s-6,8.9-6,14.8l-0.2,52.7c0.3,20.4,7.5,37.7,21.4,51.8c14,14.1,31.3,21.4,52.1,21.9
		c20.9-0.5,38.3-7.7,52.1-21.7c13.8-14,21-30.8,21.7-50.6v-54.3c0-5.9-2-10.8-6-14.8C1750.6,1073.9,1745.7,1071.9,1739.8,1071.9z"/>
	<path class="st1" d="M2014.6,1116.3c-3.9-8.8-9.2-16.5-16-23c-6.8-6.6-14.6-11.8-23.6-15.7s-18.7-5.9-29.1-5.9
		c-8.8,0-17.3,1.8-25.4,5.3s-15.2,8.2-21.3,14.1c-6.9-5.9-14.5-10.6-22.9-14.1s-17-5.3-25.8-5.3c-5.9,0-11.4,0.8-16.4,2.3
		c-5.1,1.6-10.1,3.3-15,5.3c-2-2-4.4-3.7-7.2-5.3c-2.8-1.6-6.2-2.3-10.1-2.3c-6.9,0-12.5,2.5-16.9,7.6s-6.6,11.2-6.6,18.2v48.7v46.7
		c0,6.9,2.2,12.8,6.6,17.8s10,7.5,16.9,7.5c3.3,0,6.5-0.7,9.5-2.1s5.7-3.2,7.9-5.4c2.2-2.2,4.1-4.9,5.4-7.9c1.4-3,2.1-6.3,2.1-9.8
		v-46.7c0-7,2.2-13.1,6.6-18.1s10.1-7.5,17.2-7.5c6.8,0,12.5,2.5,16.9,7.5s6.6,11,6.6,18.1v46.7c0,3.5,0.7,6.8,2.1,9.8
		s3.2,5.7,5.4,7.9c2.2,2.3,4.9,4.1,7.9,5.4c3,1.4,6.3,2.1,9.8,2.1c6.8,0,12.5-2.5,16.9-7.5s6.6-10.9,6.6-17.8v-46.7
		c0-3.5,0.7-6.8,2.1-10c1.4-3.1,3.1-5.8,5.3-8.1c2.2-2.2,4.6-4.1,7.3-5.4c2.7-1.4,5.6-2.1,8.5-2.1c7,0,13.1,2.5,18.1,7.5
		s7.5,11,7.5,18.1v46.7c0,6.9,2.2,12.8,6.6,17.8s10,7.5,16.9,7.5c3.5,0,6.8-0.7,9.8-2.1s5.7-3.2,8.1-5.4c2.3-2.2,4.2-4.9,5.6-7.9
		s2.1-6.3,2.1-9.8v-46.7v-2.3C2020.5,1134.3,2018.5,1125.1,2014.6,1116.3z"/>
</g>
<g id="Layer_4">
</g>
</svg>
